<svg xmlns="http://www.w3.org/2000/svg" viewBox="0 0 640 360" role="img" aria-labelledby="title desc">
  <title id="title">지역화 비주얼 싱킹</title>
  <desc id="desc">우리나라 지도 속 한 지역의 특색이 다른 곳으로 퍼지는 모습</desc>
  <rect width="640" height="360" fill="#fffdf8"/>
  <defs>
    <marker id="arrow" markerWidth="10" markerHeight="10" refX="8" refY="4" orient="auto">
      <path d="M1 1 L8 4 L1 7" fill="none" stroke="#111" stroke-width="2" stroke-linecap="round" stroke-linejoin="round"/>
    </marker>
  </defs>
  <g fill="none" stroke="#111" stroke-width="3.2" stroke-linecap="round" stroke-linejoin="round">
    <path d="M166 52
      L194 72 L206 100 L196 124
      L218 142 L205 164 L224 188
      L208 216 L188 238 L176 270
      L154 248 L158 220 L138 202
      L150 178 L130 154 L150 130
      L140 104 L154 82 Z"/>
    <ellipse cx="183" cy="294" rx="20" ry="9"/>
    <circle cx="162" cy="186" r="11"/>
    <path d="M173 186h174" marker-end="url(#arrow)"/>
    <rect x="382" y="142" width="104" height="78" rx="10"/>
    <path d="M434 198v-42"/>
    <path d="M434 164c-22-5-36-19-40-40 24 3 36 18 40 40z"/>
    <path d="M434 164c22-5 36-19 40-40-24 3-36 18-40 40z"/>
    <circle cx="548" cy="112" r="10"/>
    <circle cx="552" cy="236" r="10"/>
    <path d="M488 160c28-12 46-28 54-44" marker-end="url(#arrow)"/>
    <path d="M488 200c30 10 48 22 58 34" marker-end="url(#arrow)"/>
  </g>
  <g font-family="Malgun Gothic, Pretendard, SUIT, sans-serif" font-size="24" font-weight="700" fill="#111" text-anchor="middle">
    <text x="174" y="326">우리나라</text>
    <text x="434" y="258">특색</text>
  </g>
</svg>
